<svg width="16" height="16" viewBox="0 0 16 16" fill="none" xmlns="http://www.w3.org/2000/svg">
                            <path
                                d="M14.5465 5.56641C14.6559 5.8125 14.5739 6.05859 14.3825 6.25L13.2067 7.31641C13.234 7.53516 13.2614 7.78125 13.2614 8C13.2614 8.24609 13.234 8.49219 13.2067 8.71094L14.3825 9.77734C14.5739 9.96875 14.6559 10.2148 14.5465 10.4609C14.4372 10.7891 14.3005 11.0898 14.1364 11.3906L13.9997 11.6094C13.8083 11.9102 13.6169 12.2109 13.3981 12.4844C13.234 12.6758 12.9606 12.7305 12.7145 12.6484L11.2106 12.1836C10.8278 12.457 10.4176 12.6758 10.0075 12.8672L9.65202 14.4258C9.59733 14.6719 9.40592 14.8633 9.15983 14.918C8.77702 14.9727 8.3942 15 7.98405 15C7.60124 15 7.21842 14.9727 6.83561 14.918C6.58952 14.8633 6.39811 14.6719 6.34342 14.4258L5.98795 12.8672C5.5778 12.6758 5.16764 12.457 4.78483 12.1836L3.28092 12.6484C3.03483 12.7305 2.76139 12.6758 2.59733 12.4844C2.37858 12.2109 2.18717 11.9102 1.99577 11.6094L1.85905 11.3906C1.69499 11.0898 1.55827 10.7891 1.44889 10.4609C1.33952 10.2148 1.42155 9.96875 1.61295 9.77734L2.78874 8.71094C2.76139 8.49219 2.76139 8.24609 2.76139 8C2.76139 7.78125 2.76139 7.53516 2.78874 7.31641L1.61295 6.25C1.42155 6.05859 1.33952 5.8125 1.44889 5.56641C1.55827 5.23828 1.69499 4.9375 1.85905 4.63672L1.99577 4.41797C2.18717 4.11719 2.37858 3.81641 2.59733 3.54297C2.76139 3.35156 3.03483 3.29688 3.28092 3.37891L4.78483 3.84375C5.16764 3.57031 5.5778 3.32422 5.98795 3.16016L6.34342 1.60156C6.39811 1.35547 6.58952 1.16406 6.83561 1.10938C7.21842 1.05469 7.60124 1 8.01139 1C8.3942 1 8.77702 1.05469 9.15983 1.10938C9.40592 1.16406 9.59733 1.35547 9.65202 1.60156L10.0075 3.16016C10.4176 3.32422 10.8278 3.57031 11.2106 3.84375L12.7145 3.37891C12.9606 3.29688 13.234 3.35156 13.3981 3.54297C13.6169 3.81641 13.8083 4.11719 13.9997 4.41797L14.1364 4.63672C14.3005 4.9375 14.4372 5.23828 14.5465 5.56641ZM8.01139 10.1875C9.21452 10.1875 10.1989 9.23047 10.1989 8C10.1989 6.79688 9.21452 5.8125 8.01139 5.8125C6.78092 5.8125 5.82389 6.79688 5.82389 8C5.82389 9.23047 6.78092 10.1875 8.01139 10.1875Z"
                                fill="#A8A8A8" />
                        </svg>