<svg width="175" height="40" viewBox="0 0 175 40" fill="none" xmlns="http://www.w3.org/2000/svg">
<g clip-path="url(#clip0_1086_66612)">
<rect width="40" height="40" rx="20" fill="white"/>
<path fill-rule="evenodd" clip-rule="evenodd" d="M11.8182 20.8182V15.9091H16.7273V22.4545C16.7273 24.262 18.1926 25.7273 20 25.7273C21.8075 25.7273 23.2728 24.262 23.2728 22.4545V11H33.0909V21.6364C33.0909 28.8663 27.2299 34.7273 20 34.7273C12.7701 34.7273 6.90912 28.8663 6.90912 21.6364V20.8182H11.8182Z" fill="#1B6AE0"/>
<path d="M16.7273 11H11.8182V15.9091H16.7273V11Z" fill="#FF6933"/>
<path d="M11.8182 11H6.90912V15.9091H11.8182V11Z" fill="#FFE100"/>
<path d="M11.8182 15.9091H6.90912V20.8182H11.8182V15.9091Z" fill="#1FB800"/>
<path d="M23.2727 11H28.1818V15.9091H23.2727V11Z" fill="#FF6933"/>
<path d="M28.1819 11H33.0909V15.9091H28.1819V11Z" fill="#FFE100"/>
<path d="M28.1819 15.9091H33.0909V20.8182H28.1819V15.9091Z" fill="#1FB800"/>
<path d="M71.0617 5C70.392 5 69.8183 5.55753 69.8183 6.25076C69.8183 6.944 70.392 7.50153 71.0617 7.50153C71.7502 7.50153 72.305 6.9434 72.305 6.25076C72.305 5.55813 71.7502 5 71.0617 5Z" fill="white"/>
<path d="M47.0599 5.09155C47.0268 5.09155 47 5.11852 47 5.1518V12.5513C47 14.0646 47.4359 15.3408 48.3238 16.2386C49.2118 17.1366 50.5442 17.6484 52.3216 17.6484C54.0899 17.6484 55.4178 17.1412 56.3036 16.2432C57.1892 15.3452 57.625 14.0645 57.625 12.533V5.1518C57.625 5.11852 57.5982 5.09155 57.5651 5.09155H55.4167C55.3837 5.09155 55.3569 5.11852 55.3569 5.1518V12.4781C55.3569 13.438 55.0914 14.2229 54.5834 14.7675C54.0759 15.3115 53.3193 15.6231 52.3216 15.6231C51.3146 15.6231 50.5535 15.3114 50.0438 14.7674C49.5336 14.2229 49.2682 13.438 49.2682 12.4781V5.1518C49.2682 5.11852 49.2414 5.09155 49.2083 5.09155H47.0599Z" fill="white"/>
<path d="M59.9092 5.09155C59.8762 5.09155 59.8494 5.11852 59.8494 5.1518V17.3683C59.8494 17.4016 59.8762 17.4286 59.9092 17.4286H61.8209C61.854 17.4286 61.8808 17.4016 61.8808 17.3683V5.1518C61.8808 5.11852 61.854 5.09155 61.8209 5.09155H59.9092Z" fill="white"/>
<path d="M64.8653 6.04401C64.8322 6.04401 64.8054 6.07098 64.8054 6.10426V8.46167H63.4088C63.3757 8.46167 63.3489 8.48864 63.3489 8.52192V10.2069C63.3489 10.2402 63.3757 10.2672 63.4088 10.2672H64.8054V15.317C64.8054 16.06 65.004 16.6452 65.3986 17.0445C65.7932 17.4439 66.375 17.6484 67.1229 17.6484C68.0255 17.6484 68.6064 17.4073 68.9666 17.0641C68.9832 17.0482 68.9894 17.0242 68.9825 17.0022L68.5273 15.5552C68.5208 15.5346 68.5038 15.519 68.4827 15.5145C68.4616 15.51 68.4398 15.5172 68.4254 15.5334C68.3612 15.6061 68.2479 15.6794 68.1031 15.7346C67.9592 15.7894 67.7889 15.8245 67.6145 15.8245C67.3593 15.8245 67.1678 15.7228 67.0385 15.5528C66.9077 15.3809 66.8369 15.1341 66.8369 14.8408V10.2672H68.5612C68.5943 10.2672 68.6211 10.2402 68.6211 10.2069V8.52192C68.6211 8.48864 68.5943 8.46167 68.5612 8.46167H66.8369V6.10426C66.8369 6.07098 66.8101 6.04401 66.777 6.04401H64.8653Z" fill="white"/>
<path d="M99.2702 6.04401C99.2371 6.04401 99.2103 6.07098 99.2103 6.10426V8.46167H97.8137C97.7806 8.46167 97.7538 8.48864 97.7538 8.52192V10.2069C97.7538 10.2402 97.7806 10.2672 97.8137 10.2672H99.2103V15.317C99.2103 16.06 99.4089 16.6452 99.8035 17.0445C100.198 17.4439 100.78 17.6484 101.528 17.6484C102.43 17.6484 103.011 17.4073 103.371 17.0641C103.388 17.0482 103.394 17.0242 103.387 17.0022L102.932 15.5552C102.926 15.5346 102.909 15.519 102.888 15.5145C102.867 15.51 102.845 15.5172 102.83 15.5334C102.766 15.6061 102.653 15.6794 102.508 15.7346C102.364 15.7894 102.194 15.8245 102.019 15.8245C101.764 15.8245 101.573 15.7228 101.443 15.5528C101.313 15.3809 101.242 15.1341 101.242 14.8408V10.2672H102.966C102.999 10.2672 103.026 10.2402 103.026 10.2069V8.52192C103.026 8.48864 102.999 8.46167 102.966 8.46167H101.242V6.10426C101.242 6.07098 101.215 6.04401 101.182 6.04401H99.2702Z" fill="white"/>
<path d="M79.0947 8.24188C78.4172 8.24188 77.7835 8.4658 77.2739 8.75805C76.8493 9.00156 76.5073 9.29469 76.2961 9.55041V8.52192C76.2961 8.48864 76.2693 8.46167 76.2362 8.46167H74.3245C74.2914 8.46167 74.2646 8.48864 74.2646 8.52192V17.3683C74.2646 17.4016 74.2914 17.4286 74.3245 17.4286H76.2362C76.2693 17.4286 76.2961 17.4016 76.2961 17.3683V11.2148C76.693 10.6434 77.4534 10.0657 78.2572 10.0657C78.7633 10.0657 79.1086 10.2215 79.3288 10.4839C79.5506 10.7482 79.6538 11.1303 79.6538 11.5989V17.3683C79.6538 17.4016 79.6806 17.4286 79.7137 17.4286H81.6254C81.6585 17.4286 81.6853 17.4016 81.6853 17.3683V11.1963C82.0641 10.6441 82.842 10.0657 83.6645 10.0657C84.1612 10.0657 84.502 10.2213 84.7201 10.4837C84.9398 10.748 85.043 11.1303 85.043 11.5989V17.3683C85.043 17.4016 85.0698 17.4286 85.1029 17.4286H87.0146C87.0476 17.4286 87.0744 17.4016 87.0744 17.3683V10.9762C87.0744 10.0691 86.8444 9.38316 86.3997 8.92403C85.9549 8.46465 85.3044 8.24188 84.4838 8.24188C83.2061 8.24188 82.0668 9.00985 81.5166 9.79602C81.3601 9.35119 81.0926 8.97499 80.7133 8.70403C80.3009 8.40937 79.7602 8.24188 79.0947 8.24188Z" fill="white"/>
<path fill-rule="evenodd" clip-rule="evenodd" d="M92.9319 8.24188C91.5162 8.24188 90.2265 8.70462 89.1947 9.68699C89.1745 9.70629 89.1701 9.73713 89.1843 9.76133L89.9672 11.0983C89.9765 11.1143 89.9926 11.125 90.0109 11.1275C90.0291 11.1299 90.0475 11.1238 90.0606 11.1109C90.8151 10.3699 91.6562 10.0108 92.6223 10.0108C93.2228 10.0108 93.723 10.1641 94.0716 10.4376C94.4187 10.7099 94.6198 11.1044 94.6198 11.5989V12.7611C93.9644 12.0709 92.9724 11.7218 91.8395 11.7218C91.1097 11.7218 90.3311 11.9354 89.7336 12.4102C89.1341 12.8865 88.7209 13.6229 88.7209 14.6576C88.7209 16.6608 90.3791 17.6484 91.8395 17.6484C92.9587 17.6484 93.95 17.2642 94.6198 16.57V17.3683C94.6198 17.4016 94.6466 17.4286 94.6797 17.4286H96.5914C96.6245 17.4286 96.6513 17.4016 96.6513 17.3683V11.5073C96.6513 10.3005 96.2165 9.48013 95.528 8.96356C94.8424 8.44919 93.9129 8.24188 92.9319 8.24188ZM90.7705 14.6943C90.7705 14.2271 90.9627 13.8457 91.2835 13.58C91.6054 13.3135 92.0599 13.161 92.5859 13.161C93.404 13.161 94.1949 13.4627 94.6198 14.0364V15.3338C94.1949 15.9075 93.404 16.2092 92.5859 16.2092C92.0599 16.2092 91.6053 16.0567 91.2833 15.7923C90.9624 15.5287 90.7705 15.1519 90.7705 14.6943Z" fill="white"/>
<path fill-rule="evenodd" clip-rule="evenodd" d="M108.434 8.24188C105.795 8.24188 103.914 10.3416 103.914 12.936C103.914 14.3518 104.411 15.5308 105.245 16.3559C106.079 17.1808 107.246 17.6484 108.58 17.6484C109.993 17.6484 111.302 17.2053 112.19 16.3495C112.211 16.329 112.214 16.296 112.198 16.2716L111.324 15.0078C111.314 14.9932 111.297 14.9838 111.28 14.9822C111.262 14.9807 111.245 14.987 111.232 14.9997C110.626 15.609 109.623 15.9527 108.78 15.9527C107.183 15.9527 106.212 14.9149 106.044 13.6373H112.767C112.801 13.6373 112.827 13.6103 112.827 13.577V13.1191C112.827 11.715 112.4 10.4958 111.636 9.62671C110.87 8.75692 109.771 8.24188 108.434 8.24188ZM110.848 12.1614H106.024C106.08 11.6505 106.284 11.1062 106.66 10.6845C107.052 10.2462 107.632 9.93752 108.434 9.93752C109.283 9.93752 109.876 10.2557 110.262 10.6977C110.634 11.1234 110.818 11.6674 110.848 12.1614Z" fill="white"/>
<path d="M70.1149 8.46167C70.0819 8.46167 70.055 8.48864 70.055 8.52192V17.3683C70.055 17.4016 70.0819 17.4286 70.1149 17.4286H72.0266C72.0597 17.4286 72.0865 17.4016 72.0865 17.3683V8.52192C72.0865 8.48864 72.0597 8.46167 72.0266 8.46167H70.1149Z" fill="white"/>
<path d="M47.0599 22.4432C47.0268 22.4432 47 22.4702 47 22.5035V34.72C47 34.7532 47.0268 34.7802 47.0599 34.7802H49.1901C49.2231 34.7802 49.25 34.7532 49.25 34.72V29.5053H55.2529C55.286 29.5053 55.3128 29.4783 55.3128 29.4451V27.5586C55.3128 27.5253 55.286 27.4983 55.2529 27.4983H49.25V24.4502H55.3803C55.4134 24.4502 55.4402 24.4232 55.4402 24.39V22.5035C55.4402 22.4702 55.4134 22.4432 55.3803 22.4432H47.0599Z" fill="white"/>
<path d="M71.2087 22.4432C71.1757 22.4432 71.1489 22.4702 71.1489 22.5035V34.72C71.1489 34.7532 71.1757 34.7802 71.2087 34.7802H73.1205C73.1535 34.7802 73.1803 34.7532 73.1803 34.72V22.5035C73.1803 22.4702 73.1535 22.4432 73.1205 22.4432H71.2087Z" fill="white"/>
<path fill-rule="evenodd" clip-rule="evenodd" d="M81.6086 22.4432C81.5755 22.4432 81.5487 22.4702 81.5487 22.5035V26.9287C80.8342 26.0662 79.8444 25.5935 78.7866 25.5935C77.632 25.5935 76.6366 26.0493 75.9306 26.8689C75.2252 27.6879 74.8122 28.8659 74.8122 30.3059C74.8122 31.7733 75.2298 32.947 75.9378 33.7547C76.6464 34.563 77.6418 35 78.7866 35C79.8768 35 80.866 34.4963 81.5487 33.6818V34.72C81.5487 34.7532 81.5755 34.7802 81.6086 34.7802H83.5203C83.5534 34.7802 83.5802 34.7532 83.5802 34.72V22.5035C83.5802 22.4702 83.5534 22.4432 83.5203 22.4432H81.6086ZM76.9165 30.3059C76.9165 29.456 77.1547 28.7333 77.5741 28.2243C77.9927 27.7164 78.5947 27.4173 79.3328 27.4173C80.2162 27.4173 81.1188 27.9304 81.5487 28.566V32.0458C81.1192 32.6805 80.217 33.1761 79.3328 33.1761C78.5947 33.1761 77.9926 32.8771 77.5741 32.3714C77.1546 31.8646 76.9165 31.1465 76.9165 30.3059Z" fill="white"/>
<path fill-rule="evenodd" clip-rule="evenodd" d="M65.1707 25.5935C62.5311 25.5935 60.6502 27.6932 60.6502 30.2876C60.6502 31.7034 61.1472 32.8824 61.9812 33.7075C62.8151 34.5324 63.9822 35 65.3163 35C66.7297 35 68.0387 34.5569 68.9263 33.7012C68.9476 33.6806 68.9508 33.6476 68.934 33.6233L68.0601 32.3595C68.05 32.3448 68.0339 32.3355 68.0162 32.3339C67.9986 32.3323 67.9811 32.3387 67.9686 32.3513C67.3629 32.9606 66.3596 33.3044 65.5166 33.3044C63.9197 33.3044 62.9484 32.2665 62.7803 30.9889H69.5039C69.5369 30.9889 69.5638 30.9619 69.5638 30.9286V30.4707C69.5638 29.0667 69.1367 27.8474 68.3721 26.9783C67.6069 26.1085 66.507 25.5935 65.1707 25.5935ZM63.3968 28.0361C63.0202 28.4578 62.816 29.0022 62.7606 29.513H67.584C67.554 29.019 67.3708 28.475 66.9987 28.0494C66.6123 27.6073 66.019 27.2891 65.1707 27.2891C64.3684 27.2891 63.7883 27.5978 63.3968 28.0361Z" fill="white"/>
<path d="M57.0467 25.8133C57.0136 25.8133 56.9868 25.8403 56.9868 25.8735V34.72C56.9868 34.7532 57.0136 34.7802 57.0467 34.7802H58.9584C58.9914 34.7802 59.0183 34.7532 59.0183 34.72V25.8735C59.0183 25.8403 58.9914 25.8133 58.9584 25.8133H57.0467Z" fill="white"/>
<path d="M57.9934 22.3516C57.3237 22.3516 56.7501 22.9092 56.7501 23.6024C56.7501 24.2956 57.3237 24.8532 57.9934 24.8532C58.6819 24.8532 59.2367 24.295 59.2367 23.6024C59.2367 22.9098 58.6819 22.3516 57.9934 22.3516Z" fill="white"/>
<path d="M94.1901 22.2417C90.5724 22.2417 87.7579 24.8308 87.7579 28.6209C87.7579 32.4109 90.5724 35 94.1901 35C96.6736 35 98.184 33.7026 99.12 32.2248C99.129 32.2105 99.132 32.193 99.127 32.1766C99.123 32.1602 99.112 32.1465 99.097 32.1387L97.2761 31.2046C97.2476 31.19 97.2127 31.2005 97.1969 31.2284C96.6244 32.2362 95.4785 32.9747 94.1901 32.9747C91.8223 32.9747 90.0625 31.1542 90.0625 28.6209C90.0625 26.0876 91.8223 24.2671 94.1901 24.2671C95.4781 24.2671 96.6244 25.0235 97.1971 26.0137C97.2131 26.0414 97.2477 26.0516 97.2761 26.0371L99.097 25.103C99.112 25.0953 99.123 25.0817 99.127 25.0654C99.132 25.0491 99.129 25.0317 99.12 25.0174C98.202 23.5389 96.6734 22.2417 94.1901 22.2417Z" fill="white"/>
<path d="M144.611 22.3516C143.941 22.3516 143.367 22.9092 143.367 23.6024C143.367 24.2956 143.941 24.8532 144.611 24.8532C145.299 24.8532 145.854 24.295 145.854 23.6024C145.854 22.9098 145.299 22.3516 144.611 22.3516Z" fill="white"/>
<path d="M110.61 22.4432C110.577 22.4432 110.551 22.4702 110.551 22.5035V34.72C110.551 34.7532 110.577 34.7802 110.61 34.7802H112.522C112.555 34.7802 112.582 34.7532 112.582 34.72V22.5035C112.582 22.4702 112.555 22.4432 112.522 22.4432H110.61Z" fill="white"/>
<path d="M114.82 22.4432C114.787 22.4432 114.76 22.4702 114.76 22.5035V34.72C114.76 34.7532 114.787 34.7802 114.82 34.7802H116.732C116.765 34.7802 116.792 34.7532 116.792 34.72V22.5035C116.792 22.4702 116.765 22.4432 116.732 22.4432H114.82Z" fill="white"/>
<path d="M138.414 23.3956C138.381 23.3956 138.355 23.4226 138.355 23.4559V25.8133H136.958C136.925 25.8133 136.898 25.8403 136.898 25.8735V27.5586C136.898 27.5918 136.925 27.6188 136.958 27.6188H138.355V32.6686C138.355 33.4116 138.553 33.9968 138.948 34.3961C139.342 34.7955 139.924 35 140.672 35C141.575 35 142.156 34.7589 142.516 34.4157C142.532 34.3998 142.539 34.3758 142.532 34.3538L142.076 32.9069C142.07 32.8862 142.053 32.8706 142.032 32.8661C142.011 32.8616 141.989 32.8688 141.975 32.885C141.91 32.9577 141.797 33.031 141.652 33.0862C141.508 33.141 141.338 33.1761 141.164 33.1761C140.908 33.1761 140.717 33.0744 140.588 32.9044C140.457 32.7325 140.386 32.4858 140.386 32.1924V27.6188H142.11C142.143 27.6188 142.17 27.5918 142.17 27.5586V25.8735C142.17 25.8403 142.143 25.8133 142.11 25.8133H140.386V23.4559C140.386 23.4226 140.359 23.3956 140.326 23.3956H138.414Z" fill="white"/>
<path fill-rule="evenodd" clip-rule="evenodd" d="M104.507 25.5935C101.684 25.5935 99.932 27.7308 99.932 30.2876C99.932 32.8625 101.684 35 104.507 35C105.933 35 107.083 34.4671 107.876 33.6094C108.668 32.7522 109.1 31.574 109.1 30.2876C109.1 29.0102 108.668 27.8366 107.876 26.9817C107.083 26.1263 105.933 25.5935 104.507 25.5935ZM102.036 30.2876C102.036 29.5204 102.26 28.8018 102.68 28.2763C103.1 27.7521 103.715 27.4173 104.507 27.4173C105.308 27.4173 105.928 27.7523 106.349 28.2764C106.771 28.8018 106.996 29.5204 106.996 30.2876C106.996 31.0641 106.771 31.7872 106.349 32.3149C105.928 32.8412 105.308 33.1761 104.507 33.1761C103.715 33.1761 103.1 32.8414 102.681 32.315C102.26 31.7873 102.036 31.0641 102.036 30.2876Z" fill="white"/>
<path fill-rule="evenodd" clip-rule="evenodd" d="M122.944 25.5935C120.304 25.5935 118.423 27.6932 118.423 30.2876C118.423 31.7034 118.921 32.8824 119.755 33.7075C120.588 34.5324 121.756 35 123.09 35C124.503 35 125.812 34.5569 126.7 33.7012C126.721 33.6806 126.724 33.6476 126.707 33.6233L125.833 32.3595C125.823 32.3448 125.807 32.3355 125.79 32.3339C125.772 32.3323 125.754 32.3387 125.742 32.3513C125.136 32.9606 124.133 33.3044 123.29 33.3044C121.693 33.3044 120.722 32.2665 120.554 30.9889H127.277C127.31 30.9889 127.337 30.9619 127.337 30.9286V30.4707C127.337 29.0667 126.91 27.8474 126.145 26.9783C125.38 26.1085 124.28 25.5935 122.944 25.5935ZM121.17 28.0361C120.794 28.4578 120.589 29.0022 120.534 29.513H125.357C125.327 29.019 125.144 28.475 124.772 28.0494C124.386 27.6073 123.792 27.2891 122.944 27.2891C122.142 27.2891 121.562 27.5978 121.17 28.0361Z" fill="white"/>
<path d="M132.988 25.5935C130.277 25.5935 128.376 27.5814 128.376 30.2876C128.376 33.012 130.277 35 132.988 35C134.719 35 135.774 34.2574 136.404 33.4004C136.422 33.3757 136.419 33.3413 136.396 33.3204L135.14 32.1482C135.128 32.1365 135.111 32.1308 135.094 32.1324C135.077 32.1341 135.061 32.143 135.051 32.1569C134.57 32.8197 133.914 33.1761 133.079 33.1761C132.294 33.1761 131.646 32.876 131.193 32.3674C130.74 31.8583 130.48 31.1362 130.48 30.2876C130.48 29.439 130.74 28.7216 131.193 28.2171C131.645 27.7131 132.293 27.4173 133.079 27.4173C133.915 27.4173 134.57 27.756 135.051 28.436C135.061 28.4501 135.076 28.4592 135.093 28.461C135.111 28.4628 135.128 28.457 135.14 28.4453L136.396 27.2731C136.419 27.2522 136.422 27.2177 136.404 27.1931C135.774 26.3361 134.719 25.5935 132.988 25.5935Z" fill="white"/>
<path fill-rule="evenodd" clip-rule="evenodd" d="M156.436 30.2876C156.436 29.0102 156.003 27.8366 155.211 26.9817C154.419 26.1263 153.269 25.5935 151.843 25.5935C149.02 25.5935 147.268 27.7308 147.268 30.2876C147.268 32.8625 149.02 35 151.843 35C153.269 35 154.419 34.4671 155.212 33.6094C156.004 32.7522 156.436 31.574 156.436 30.2876ZM149.372 30.2876C149.372 29.5204 149.596 28.8018 150.016 28.2763C150.435 27.7521 151.051 27.4173 151.843 27.4173C152.644 27.4173 153.264 27.7523 153.685 28.2764C154.107 28.8018 154.332 29.5204 154.332 30.2876C154.332 31.0641 154.107 31.7872 153.685 32.3149C153.264 32.8412 152.644 33.1761 151.843 33.1761C151.051 33.1761 150.435 32.8414 150.016 32.315C149.596 31.7873 149.372 31.0641 149.372 30.2876Z" fill="white"/>
<path d="M163.135 25.5935C161.81 25.5935 160.717 26.2548 160.1 26.9233V25.8735C160.1 25.8403 160.073 25.8133 160.04 25.8133H158.128C158.095 25.8133 158.068 25.8403 158.068 25.8735V34.72C158.068 34.7532 158.095 34.7802 158.128 34.7802H160.04C160.073 34.7802 160.1 34.7532 160.1 34.72V28.5673C160.531 27.9805 161.346 27.4173 162.298 27.4173C162.828 27.4173 163.251 27.5305 163.543 27.802C163.833 28.0725 164.004 28.5112 164.004 29.1886V34.72C164.004 34.7532 164.031 34.7802 164.064 34.7802H165.975C166.009 34.7802 166.035 34.7532 166.035 34.72V28.4927C166.035 27.576 165.796 26.8488 165.308 26.3509C164.82 25.8529 164.092 25.5935 163.135 25.5935Z" fill="white"/>
<path d="M171.244 25.5935C170.123 25.5935 169.243 25.908 168.643 26.4111C168.043 26.9145 167.725 27.6044 167.725 28.3461C167.725 29.2124 168.066 29.7873 168.579 30.1853C169.088 30.5805 169.763 30.7991 170.429 30.9642C170.652 31.0196 170.873 31.0688 171.088 31.1165C171.518 31.2122 171.92 31.3016 172.25 31.4214C172.496 31.5108 172.695 31.6146 172.832 31.7453C172.966 31.874 173.041 32.0295 173.041 32.229C173.041 32.558 172.905 32.8374 172.631 33.0365C172.356 33.2372 171.938 33.3593 171.372 33.3593C170.242 33.3593 169.037 32.7623 168.429 32.1321C168.416 32.1189 168.398 32.1123 168.379 32.1142C168.361 32.1161 168.345 32.1263 168.335 32.1419L167.461 33.5339C167.446 33.5579 167.45 33.5892 167.47 33.6091C168.394 34.5201 169.776 35 171.281 35C172.473 35 173.403 34.7 174.035 34.1972C174.669 33.6934 175 32.989 175 32.1924C175 31.2951 174.66 30.6919 174.147 30.2712C173.638 29.8533 172.963 29.6184 172.297 29.4462C172.032 29.3779 171.768 29.3191 171.515 29.2629L171.509 29.2616C171.445 29.2473 171.381 29.2332 171.319 29.2192C171.007 29.1492 170.719 29.0803 170.473 28.9981C170.227 28.9157 170.028 28.8215 169.891 28.7036C169.757 28.5876 169.684 28.4496 169.684 28.2729C169.684 27.9848 169.83 27.7321 170.101 27.549C170.373 27.3652 170.77 27.2525 171.262 27.2525C172.34 27.2525 173.306 27.7046 173.821 28.2943C173.834 28.3088 173.852 28.3163 173.871 28.3145C173.891 28.3128 173.908 28.3019 173.917 28.2853L174.718 26.93C174.733 26.9051 174.728 26.8733 174.707 26.8541C173.895 26.1305 172.752 25.5935 171.244 25.5935Z" fill="white"/>
<path d="M143.664 25.8133C143.631 25.8133 143.604 25.8403 143.604 25.8735V34.72C143.604 34.7532 143.631 34.7802 143.664 34.7802H145.576C145.609 34.7802 145.636 34.7532 145.636 34.72V25.8735C145.636 25.8403 145.609 25.8133 145.576 25.8133H143.664Z" fill="white"/>
<rect x="118.5" y="6.17859" width="25" height="12" rx="6" fill="#1FB800"/>
<rect x="131" y="8.8125" width="9.86607" height="6.73214" rx="3.36607" fill="white"/>
<rect width="12" height="12" transform="translate(146.75 6.17859)" fill="#FFE100"/>
<path d="M151.178 15.8231L148.027 12.7126L149.428 11.3295L151.178 13.0616L156.079 8.21906L157.481 9.60223L151.178 15.8231Z" fill="#1F1F1F" stroke="#1F1F1F" stroke-width="0.263393"/>
<rect x="162" y="5.67859" width="13" height="13" rx="6.5" fill="#FF6933"/>
<rect x="165.339" y="9.01788" width="6.32143" height="6.32143" rx="3.16071" fill="white"/>
</g>
<defs>
<clipPath id="clip0_1086_66612">
<rect width="175" height="40" fill="white"/>
</clipPath>
</defs>
</svg>
