<svg width="256" height="256" viewBox="0 0 256 256" fill="none" xmlns="http://www.w3.org/2000/svg">
<rect x="8" y="8" width="240" height="240" rx="120" fill="white"/>
<path fill-rule="evenodd" clip-rule="evenodd" d="M53.8188 104.819V104.818H81.636H81.637H109.454V77H109.455V141.909C109.455 152.151 117.758 160.455 128 160.455C138.243 160.455 146.546 152.151 146.546 141.909V77H202.183V137.273C202.183 178.242 168.97 211.455 128.001 211.455C87.0312 211.455 53.8188 178.242 53.8188 137.273V132.637H81.637V104.819H53.8188Z" fill="#1B6AE0"/>
<path d="M109.454 77H81.636V104.818H109.454V77Z" fill="#FF6933"/>
<path d="M81.637 77H53.8188V104.818H81.637V77Z" fill="#FFE100"/>
<path d="M81.637 104.819H53.8188V132.637H81.637V104.819Z" fill="#1FB800"/>
<path d="M146.546 77H174.364V104.818H146.546V77Z" fill="#FF6933"/>
<path d="M174.363 77H202.181V104.818H174.363V77Z" fill="#FFE100"/>
<path d="M174.363 104.819H202.181V132.637H174.363V104.819Z" fill="#1FB800"/>
<rect x="8" y="8" width="240" height="240" rx="120" stroke="#F7F7F7" stroke-width="16"/>
</svg>
